<svg xmlns="http://www.w3.org/2000/svg" width="20" height="16.311" viewBox="0 0 20 16.311">
  <g id="_1-01" data-name="1-01" transform="translate(-18.279 -21.148)">
    <path id="Path_392" data-name="Path 392" d="M36.475,30.492H20.082a.529.529,0,0,1-.533-.369l-1.23-2.869a.52.52,0,0,1-.041-.246V21.721a.56.56,0,0,1,.574-.574H37.7a.56.56,0,0,1,.574.574v5.328a.52.52,0,0,1-.041.246l-1.23,2.869A.549.549,0,0,1,36.475,30.492ZM20.451,29.344H36.066l1.025-2.418V22.3H19.426v4.631Z" fill="#77b1d9"/>
    <path id="Path_393" data-name="Path 393" d="M35.246,29.672a.56.56,0,0,1-.574-.574V28.033H21.885V29.1a.574.574,0,0,1-1.148,0V27.459a.56.56,0,0,1,.574-.574H35.246a.56.56,0,0,1,.574.574V29.1A.56.56,0,0,1,35.246,29.672Z" fill="#77b1d9"/>
    <path id="Path_394" data-name="Path 394" d="M22.131,23.934H20.9a.574.574,0,0,1,0-1.148h1.23a.574.574,0,0,1,0,1.148Z" fill="#77b1d9"/>
    <path id="Path_395" data-name="Path 395" d="M24.221,37.459a.661.661,0,0,1-.369-.123.585.585,0,0,1-.082-.82c.656-.861.451-1.107.082-1.68-.615-.82-1.066-1.762.369-3.279a.58.58,0,0,1,.82.82c-.9.943-.7,1.23-.287,1.8a2.142,2.142,0,0,1-.082,3.074A.658.658,0,0,1,24.221,37.459Z" fill="#77b1d9"/>
    <path id="Path_396" data-name="Path 396" d="M27.09,37.459a.661.661,0,0,1-.369-.123.585.585,0,0,1-.082-.82c.656-.861.451-1.107.082-1.68-.615-.82-1.066-1.762.369-3.279a.58.58,0,1,1,.82.82c-.9.943-.7,1.23-.287,1.8a2.142,2.142,0,0,1-.082,3.074A.658.658,0,0,1,27.09,37.459Z" fill="#77b1d9"/>
    <path id="Path_397" data-name="Path 397" d="M29.918,37.459a.661.661,0,0,1-.369-.123.585.585,0,0,1-.082-.82c.656-.861.451-1.107.082-1.68-.615-.82-1.066-1.762.369-3.279a.58.58,0,0,1,.82.82c-.9.943-.7,1.23-.287,1.8a2.142,2.142,0,0,1-.082,3.074A.587.587,0,0,1,29.918,37.459Z" fill="#77b1d9"/>
    <path id="Path_398" data-name="Path 398" d="M32.787,37.459a.661.661,0,0,1-.369-.123.585.585,0,0,1-.082-.82c.656-.861.451-1.107.082-1.68-.615-.82-1.066-1.762.369-3.279a.58.58,0,1,1,.82.82c-.9.943-.7,1.23-.287,1.8a2.142,2.142,0,0,1-.082,3.074A.658.658,0,0,1,32.787,37.459Z" fill="#77b1d9"/>
  </g>
</svg>
