<?xml version="1.0" encoding="utf-8"?>
<!-- Generator: Adobe Illustrator 22.0.0, SVG Export Plug-In . SVG Version: 6.00 Build 0)  -->
<svg version="1.1" id="icons" xmlns="http://www.w3.org/2000/svg" xmlns:xlink="http://www.w3.org/1999/xlink" x="0px" y="0px"
	 viewBox="0 0 42.9 42.6" style="enable-background:new 0 0 42.9 42.6;" xml:space="preserve">
<style type="text/css">
	.st0{fill:#77B1D9;}
</style>
<g>
	<path class="st0" d="M40,9.7L40,9.7h-5.8c-1.5,0.4-2.6,1.7-2.6,3.3v22.7h-1.8V13c0-1.6-1.1-2.9-2.7-3.3h-5.8
		c-1.5,0.4-2.6,1.7-2.6,3.3v22.7h-1.8V13c0-1.6-1.1-2.9-2.7-3.3H8.3H8.2c-1.4,0.5-2.3,1.8-2.3,3.2v22.6H3.7v-0.7
		c0-0.8-0.6-1.4-1.4-1.4c-0.7,0-1.4,0.6-1.4,1.4v4.1c0,0.8,0.6,1.4,1.4,1.4s1.4-0.6,1.4-1.4v-0.7h2.2v1c0,1.9,1.5,3.4,3.4,3.4h4.3
		c1.9,0,3.4-1.5,3.4-3.4v-1h1.8v1c0,1.9,1.5,3.4,3.4,3.4h4.3c1.9,0,3.4-1.5,3.4-3.4v-1h1.8v1c0,1.9,1.5,3.4,3.4,3.4h4.3
		c1.9,0,3.4-1.5,3.4-3.4V13C42.6,11.4,41.5,10.1,40,9.7z M39.8,13v26.5c0,0.3-0.3,0.6-0.6,0.6h-4.3c-0.3,0-0.6-0.3-0.6-0.6V13
		c0-0.3,0.3-0.6,0.6-0.6h4.3C39.5,12.4,39.8,12.7,39.8,13z M26.3,40.1H22c-0.3,0-0.6-0.3-0.6-0.6V13c0-0.3,0.3-0.6,0.6-0.6h4.3
		c0.3,0,0.6,0.3,0.6,0.6v26.5C26.9,39.8,26.6,40.1,26.3,40.1z M8.4,39.5V13c0-0.3,0.3-0.6,0.6-0.6h4.3c0.3,0,0.6,0.3,0.6,0.6v26.5
		c0,0.3-0.3,0.6-0.6,0.6H9C8.7,40.1,8.4,39.8,8.4,39.5z"/>
	<path class="st0" d="M40.2,0h-6.3c-1.4,0-2.4,1-2.4,2.4v0.2h-1.8V2.4c0-1.4-1-2.4-2.4-2.4H21c-1.4,0-2.4,1-2.4,2.4v0.2h-1.8V2.4
		c0-1.4-1-2.4-2.4-2.4H8.1C6.7,0,5.7,1,5.7,2.4v0.2H2.8V2.5c0-0.8-0.6-1.4-1.4-1.4S0,1.7,0,2.5v3.1C0,6.4,0.6,7,1.4,7
		s1.4-0.6,1.4-1.4V5.5h2.9v0.2c0,1.3,1,2.4,2.4,2.4h6.4c1.3,0,2.4-1,2.4-2.4V5.5h1.8v0.2c0,1.3,1,2.4,2.4,2.4h6.4
		c1.3,0,2.4-1,2.4-2.4V5.5h1.8v0.2c0,1.3,1,2.4,2.4,2.4h6.4c1.3,0,2.4-1,2.4-2.4V2.4C42.6,1,41.6,0,40.2,0z M39.8,2.8v2.5h-5.5V2.8
		H39.8z M26.9,2.8v2.5h-5.5V2.8H26.9z M14,2.8v2.5H8.5V2.8H14z"/>
</g>
</svg>
