<svg xmlns="http://www.w3.org/2000/svg" width="18.174" height="20" viewBox="0 0 18.174 20">
  <g id="_1-04" data-name="1-04" transform="translate(-22.648 -19.452)">
    <path id="Path_413" data-name="Path 413" d="M37.443,32.785a.589.589,0,0,1-.594-.411.624.624,0,0,1,.365-.822,3.781,3.781,0,0,0,2.329-3.425c0-1.6-.868-2.648-1.872-3.881a12.628,12.628,0,0,1-1.553-2.192,15.67,15.67,0,0,1-1.553,2.192l-.685.822a.653.653,0,1,1-1.05-.776c.228-.274.457-.594.685-.868A7.327,7.327,0,0,0,35.434,20a.647.647,0,0,1,1.279,0,7.327,7.327,0,0,0,1.918,3.425c1.1,1.324,2.192,2.648,2.192,4.7a5.074,5.074,0,0,1-3.151,4.658Z" fill="#77b1d9"/>
    <path id="Path_414" data-name="Path 414" d="M29.68,39.452a7.162,7.162,0,0,1-7.032-6.895c0-2.877,1.689-4.795,3.333-6.667,1.37-1.553,2.694-3.059,3.059-5.068a.647.647,0,0,1,1.279,0c.365,2.055,1.689,3.516,3.059,5.068,1.644,1.872,3.333,3.79,3.333,6.667A7.13,7.13,0,0,1,29.68,39.452Zm0-16.438a17.173,17.173,0,0,1-2.74,3.744c-1.553,1.735-3.014,3.425-3.014,5.8a5.755,5.755,0,0,0,11.507,0c0-2.374-1.461-4.018-3.014-5.8A17.173,17.173,0,0,1,29.68,23.014Zm.457,14.612a5.806,5.806,0,0,1-3.973-1.689,5.61,5.61,0,0,1-1.689-3.973.639.639,0,1,1,1.279,0,4.529,4.529,0,0,0,4.384,4.384.639.639,0,1,1,0,1.279Z" fill="#77b1d9"/>
  </g>
</svg>
