<svg xmlns="http://www.w3.org/2000/svg" width="19.98" height="20" viewBox="0 0 19.98 20">
  <g id="_1-05" data-name="1-05" transform="translate(-19.282 -17.305)">
    <path id="Path_400" data-name="Path 400" d="M29.23,29.609A2.271,2.271,0,1,1,31.5,27.338,2.262,2.262,0,0,1,29.23,29.609Zm0-3.365a1.094,1.094,0,1,0,1.094,1.094A1.113,1.113,0,0,0,29.23,26.244Z" fill="#77b1d9"/>
    <path id="Path_401" data-name="Path 401" d="M30.072,24.983a.309.309,0,0,1-.252-.084.578.578,0,0,1-.252-.8A15.077,15.077,0,0,0,30.745,19.3c0-.631-.126-.757-.126-.757s-.168-.084-.841.042c-1.43.336-2.061.8-2.061,1.514a10.615,10.615,0,0,0,1.178,3.911.584.584,0,0,1-1.009.589,11.391,11.391,0,0,1-1.346-4.5c0-2.019,2.271-2.523,2.986-2.692a2.315,2.315,0,0,1,1.851.168,2.141,2.141,0,0,1,.589,1.682,16.4,16.4,0,0,1-1.346,5.3A.6.6,0,0,1,30.072,24.983Z" fill="#77b1d9"/>
    <path id="Path_402" data-name="Path 402" d="M36.38,22.081a.675.675,0,0,1-.463-.21A8.918,8.918,0,0,0,32.385,19.3a.586.586,0,0,1,.421-1.094,10.349,10.349,0,0,1,4.038,2.944.6.6,0,0,1-.084.841C36.633,22,36.506,22.081,36.38,22.081Z" fill="#77b1d9"/>
    <path id="Path_403" data-name="Path 403" d="M34.7,22.711a.54.54,0,0,1-.421-.168,7.22,7.22,0,0,0-1.935-1.43.593.593,0,1,1,.547-1.051,7.97,7.97,0,0,1,2.271,1.682.639.639,0,0,1,0,.841A1.9,1.9,0,0,1,34.7,22.711Z" fill="#77b1d9"/>
    <path id="Path_404" data-name="Path 404" d="M28.053,37.306a1.433,1.433,0,0,1-.925-.294,2.141,2.141,0,0,1-.589-1.682,16.4,16.4,0,0,1,1.346-5.3.593.593,0,0,1,1.051.547,15.077,15.077,0,0,0-1.178,4.795c0,.631.126.757.126.757s.168.084.841-.042c1.43-.336,2.061-.8,2.061-1.514a10.615,10.615,0,0,0-1.178-3.911.584.584,0,0,1,1.009-.589,11.391,11.391,0,0,1,1.346,4.5c0,2.019-2.271,2.523-2.986,2.692A6.512,6.512,0,0,0,28.053,37.306Z" fill="#77b1d9"/>
    <path id="Path_405" data-name="Path 405" d="M25.866,36.549a.379.379,0,0,1-.21-.042,10.349,10.349,0,0,1-4.038-2.944.6.6,0,0,1,.925-.757,8.918,8.918,0,0,0,3.533,2.566.59.59,0,0,1,.336.757A.534.534,0,0,1,25.866,36.549Z" fill="#77b1d9"/>
    <path id="Path_406" data-name="Path 406" d="M25.866,34.7a.533.533,0,0,1-.252-.042,7.97,7.97,0,0,1-2.271-1.682.595.595,0,0,1,.841-.841,7.22,7.22,0,0,0,1.935,1.43.568.568,0,0,1,.252.8A.49.49,0,0,1,25.866,34.7Z" fill="#77b1d9"/>
    <path id="Path_407" data-name="Path 407" d="M22.081,30.03c-2.019,0-2.523-2.271-2.692-2.986a2.315,2.315,0,0,1,.168-1.851,2.141,2.141,0,0,1,1.682-.589,16.4,16.4,0,0,1,5.3,1.346A.593.593,0,1,1,25.992,27,15.077,15.077,0,0,0,21.2,25.824c-.631,0-.757.126-.757.126s-.084.168.042.841c.336,1.43.8,2.061,1.514,2.061a10.615,10.615,0,0,0,3.911-1.178.584.584,0,0,1,.589,1.009A10.62,10.62,0,0,1,22.081,30.03Z" fill="#77b1d9"/>
    <path id="Path_408" data-name="Path 408" d="M20.608,24.562a.379.379,0,0,1-.21-.042.59.59,0,0,1-.336-.757,10.349,10.349,0,0,1,2.944-4.038.6.6,0,0,1,.757.925A8.918,8.918,0,0,0,21.2,24.183.634.634,0,0,1,20.608,24.562Z" fill="#77b1d9"/>
    <path id="Path_409" data-name="Path 409" d="M22.459,24.562a.533.533,0,0,1-.252-.042.568.568,0,0,1-.252-.8,7.97,7.97,0,0,1,1.682-2.271.595.595,0,1,1,.841.841,7.22,7.22,0,0,0-1.43,1.935A.788.788,0,0,1,22.459,24.562Z" fill="#77b1d9"/>
    <path id="Path_410" data-name="Path 410" d="M37.221,30.03a16.4,16.4,0,0,1-5.3-1.346.593.593,0,0,1,.547-1.051,15.077,15.077,0,0,0,4.795,1.178c.631,0,.757-.126.757-.126s.084-.168-.042-.841c-.336-1.43-.8-2.061-1.514-2.061a10.615,10.615,0,0,0-3.911,1.178.584.584,0,0,1-.589-1.009,11.391,11.391,0,0,1,4.5-1.346c2.019,0,2.523,2.271,2.692,2.986a2.315,2.315,0,0,1-.168,1.851A2.315,2.315,0,0,1,37.221,30.03Z" fill="#77b1d9"/>
    <path id="Path_411" data-name="Path 411" d="M35.119,35.077a.675.675,0,0,1-.463-.21.6.6,0,0,1,.084-.841,8.918,8.918,0,0,0,2.566-3.533.586.586,0,0,1,1.094.421,10.349,10.349,0,0,1-2.944,4.038A.478.478,0,0,1,35.119,35.077Z" fill="#77b1d9"/>
    <path id="Path_412" data-name="Path 412" d="M34.488,33.394a.54.54,0,0,1-.421-.168.639.639,0,0,1,0-.841A7.22,7.22,0,0,0,35.5,30.45.593.593,0,1,1,36.549,31a7.971,7.971,0,0,1-1.682,2.271A.587.587,0,0,1,34.488,33.394Z" fill="#77b1d9"/>
  </g>
</svg>
