<svg xmlns="http://www.w3.org/2000/svg" width="19.332" height="20" viewBox="0 0 19.332 20">
  <g id="_1-02" data-name="1-02" transform="translate(-21.173 -17.117)">
    <path id="Path_415" data-name="Path 415" d="M36.939,27.815a.624.624,0,0,1-.623-.534,4.732,4.732,0,0,0-.534-1.513,4.807,4.807,0,0,0-2.8-2.314l-.223,1.291a.621.621,0,0,1-1.068.312l-3.916-4.272a.585.585,0,0,1-.134-.534.707.707,0,0,1,.356-.445l5.163-2.626a.7.7,0,0,1,.668.045.654.654,0,0,1,.223.623l-.267,1.513a8.97,8.97,0,0,1,5.741,4.495,9.318,9.318,0,0,1,.979,2.759.611.611,0,1,1-1.2.223,7.74,7.74,0,0,0-.846-2.4,7.848,7.848,0,0,0-5.474-3.961.577.577,0,0,1-.49-.712l.134-.846-3.293,1.691,2.492,2.759.134-.668a.648.648,0,0,1,.267-.4.618.618,0,0,1,.49-.089,6.147,6.147,0,0,1,4.272,3.115,6.683,6.683,0,0,1,.668,1.869.617.617,0,0,1-.49.712C37.028,27.815,36.983,27.815,36.939,27.815Z" fill="#77b1d9"/>
    <path id="Path_416" data-name="Path 416" d="M31.465,37.117a9.358,9.358,0,0,1-3.115-.534.62.62,0,1,1,.445-1.157A7.719,7.719,0,0,0,33.6,35.6a8.012,8.012,0,0,0,3.872-2.492.548.548,0,0,1,.445-.223.752.752,0,0,1,.445.134l.579.49.223-3.694-3.649.8.579.49a.635.635,0,0,1,.089.89,6.178,6.178,0,0,1-3.026,1.958,6.1,6.1,0,0,1-3.783-.134.62.62,0,1,1,.445-1.157,5.016,5.016,0,0,0,3.026.134,4.944,4.944,0,0,0,2-1.113l-1.068-.89a.654.654,0,0,1-.223-.623.57.57,0,0,1,.49-.445l5.7-1.246a.585.585,0,0,1,.534.134.737.737,0,0,1,.223.534l-.312,5.83a.623.623,0,0,1-.4.534.71.71,0,0,1-.668-.089l-1.113-.935a8.963,8.963,0,0,1-4.05,2.4A15.718,15.718,0,0,1,31.465,37.117Z" fill="#77b1d9"/>
    <path id="Path_417" data-name="Path 417" d="M26.48,35.158a1.047,1.047,0,0,1-.356-.089l-4.673-3.026a.57.57,0,0,1-.267-.623.642.642,0,0,1,.4-.534l1.068-.4A9.088,9.088,0,0,1,25.59,21.1a.633.633,0,1,1,.8.979,7.965,7.965,0,0,0-2.359,8.634.613.613,0,0,1-.4.8l-.445.178,2.893,1.869,1.068-3.293-.712.267a.631.631,0,0,1-.49-.045.6.6,0,0,1-.312-.356A6.2,6.2,0,0,1,27.5,23.365a.633.633,0,0,1,.8.979,4.873,4.873,0,0,0-1.647,4.762l1.291-.445a.622.622,0,0,1,.668.134.661.661,0,0,1,.178.623l-1.736,5.3a.6.6,0,0,1-.4.4A.268.268,0,0,1,26.48,35.158Z" fill="#77b1d9"/>
  </g>
</svg>
