<svg xmlns="http://www.w3.org/2000/svg" width="13.148" height="16.046" viewBox="0 0 13.148 16.046"><defs><style>.a{fill:#77b1d9;}</style></defs><g transform="translate(-1051.105 325.331)"><path class="a" d="M26.5,32.234a.208.208,0,0,1-.139-.035,5.951,5.951,0,0,1-3.915-3.291c-1.559-3.361.346-5.4,2.01-7.206,1.421-1.524,2.668-2.841,1.906-4.851a.493.493,0,0,1,.173-.554.525.525,0,0,1,.589-.035c4.365,2.945,3.569,5.3,2.98,7.033-.346,1.039-.485,1.559.069,2.044a1.707,1.707,0,0,0,2.252.139,1.366,1.366,0,0,0,.554-1.594.5.5,0,0,1,.173-.624.491.491,0,0,1,.658.1,4.761,4.761,0,0,1,1.178,3.707,6.013,6.013,0,0,1-2.529,4.123,7.422,7.422,0,0,1-2.425.97.5.5,0,0,1-.208-.97,6.991,6.991,0,0,0,2.044-.8,5.277,5.277,0,0,0,2.148-3.465,3.7,3.7,0,0,0-.173-1.628,2.984,2.984,0,0,1-.8.97,2.691,2.691,0,0,1-3.5-.173c-1.074-.935-.693-2.113-.381-3.118.485-1.421,1-3.049-1.594-5.162.1,1.871-1.178,3.222-2.391,4.539-1.594,1.732-3.118,3.361-1.836,6.132a5.086,5.086,0,0,0,3.291,2.737.5.5,0,0,1,.346.624A.543.543,0,0,1,26.5,32.234Z" transform="translate(1029.242 -341.519)"/></g></svg>