<svg xmlns="http://www.w3.org/2000/svg" width="16.467" height="16.453" viewBox="0 0 16.467 16.453"><defs><style>.a{fill:#77b1d9;stroke:#77b1d9;stroke-linecap:round;stroke-linejoin:round;stroke-miterlimit:10;stroke-width:0.421px;}</style></defs><g transform="translate(-1132.705 266.595)"><path class="a" d="M19.617,18.748l1.071,1.865a.345.345,0,0,0,.173.138l1,.242,3.42,3.42.38-.38-3.454-3.489a.179.179,0,0,0-.138-.069l-.967-.242-.9-1.589L21,17.849l1.589.9.242.967a.262.262,0,0,0,.069.138l3.489,3.489.38-.38-3.42-3.42-.242-1a.345.345,0,0,0-.138-.173L21.1,17.3a.257.257,0,0,0-.311.035L19.72,18.4A.291.291,0,0,0,19.617,18.748Z" transform="translate(1113.334 -283.626)"/><path class="a" d="M24.124,31.085a.291.291,0,0,0-.242-.138H22.294a.261.261,0,0,0-.242.138l-.794,1.347a.381.381,0,0,0,0,.276l.794,1.347a.291.291,0,0,0,.242.138h1.589a.261.261,0,0,0,.242-.138l.794-1.347a.381.381,0,0,0,0-.276Zm-.38,2.522H22.432l-.656-1.071.656-1.071h1.313l.656,1.071Z" transform="translate(1113.04 -286.101)"/><path class="a" d="M32.416,23.681a3.2,3.2,0,0,0,3.209-3.175,2.941,2.941,0,0,0-.1-.794.269.269,0,0,0-.311-.207.262.262,0,0,0-.138.069l-1.656,1.656-1.311-.449-.449-1.311,1.656-1.656a.271.271,0,0,0,0-.38.179.179,0,0,0-.138-.069,3.211,3.211,0,0,0-3.968,3.106,3.8,3.8,0,0,0,.069.621l-5.866,5.832a3.8,3.8,0,0,0-.621-.069A3.209,3.209,0,1,0,26,30.065a3.8,3.8,0,0,0-.069-.621l1.415-1.415.621.621a.271.271,0,0,0,.38,0l.138-.138a.293.293,0,0,1,.414.414h0l-.138.138a.271.271,0,0,0,0,.38l3.175,3.175a2.105,2.105,0,0,0,3.037,0,2.135,2.135,0,0,0,0-3.037h0l-3.175-3.175a.271.271,0,0,0-.38,0l-.138.138a.293.293,0,1,1-.414-.414h0L31,25.993a.271.271,0,0,0,0-.38l-.621-.621,1.415-1.415A1.954,1.954,0,0,0,32.416,23.681Zm1.035,9.076a1.431,1.431,0,0,1-.552-.1l2.07-2.07a1.6,1.6,0,0,1-1.518,2.174Zm-3-6.936a.828.828,0,0,0,.1,1.173.794.794,0,0,0,1.07,0l3,3,.1.1L32.45,32.377l-.1-.1-3-3a.828.828,0,0,0-.1-1.173.794.794,0,0,0-1.07,0l-.414-.414,2.312-2.278Zm1.07-2.692-6.073,6.039a.229.229,0,0,0-.069.242A2.691,2.691,0,1,1,22.1,27.477a2.806,2.806,0,0,1,1.311,0,.213.213,0,0,0,.242-.069l6.108-6.039a.229.229,0,0,0,.069-.242,2.656,2.656,0,0,1,1.932-3.244,2.251,2.251,0,0,1,.828-.069L31.139,19.2a.268.268,0,0,0-.069.276l.518,1.587a.416.416,0,0,0,.173.173l1.587.518a.268.268,0,0,0,.276-.069l1.415-1.415V20.4a2.636,2.636,0,0,1-2.657,2.657,3.822,3.822,0,0,1-.656-.069,2.114,2.114,0,0,0-.207.138Z" transform="translate(1113.337 -283.627)"/></g></svg>