<svg width="198" height="80" viewBox="0 0 198 80" fill="none" xmlns="http://www.w3.org/2000/svg">
<path fill-rule="evenodd" clip-rule="evenodd" d="M149.307 59.4076H152.803L151.366 56.2148L151.361 56.2031C151.312 56.0794 151.262 55.952 151.215 55.8238C151.171 55.7048 151.121 55.5618 151.064 55.3908L151.051 55.3537L151.051 55.355C150.998 55.5215 150.949 55.6657 150.905 55.7888C150.861 55.9128 150.808 56.0514 150.748 56.2019L150.744 56.2148L149.307 59.4076ZM155.698 65.5432L153.98 62.1587H148.084L146.243 65.7224H142.873L151.022 48.2324L159.163 65.7224H155.776L155.698 65.5432Z" fill="white"/>
<path fill-rule="evenodd" clip-rule="evenodd" d="M174.654 57.663C174.637 57.5897 174.615 57.4607 174.589 57.2775C174.576 57.1776 174.561 57.0618 174.544 56.93C174.515 57.0093 174.483 57.0894 174.45 57.1703C174.374 57.3569 174.288 57.5479 174.194 57.7438C172.7 60.7315 171.246 63.7494 169.774 66.7491L165.36 57.5701C165.265 57.3776 165.182 57.2002 165.111 57.0397C165.08 56.9675 165.048 56.8951 165.018 56.8225C165.004 56.91 164.989 56.998 164.973 57.0866C164.936 57.2878 164.895 57.4851 164.849 57.6782L163.097 65.7224H160.108L164.133 47.9819L169.182 58.7787L169.184 58.7822C169.22 58.8616 169.267 58.9698 169.323 59.1051C169.373 59.2237 169.438 59.3832 169.518 59.5813C169.599 59.7833 169.682 59.9949 169.772 60.2219L169.794 60.1683C169.918 59.8697 170.061 59.5469 170.222 59.2001L170.274 59.0872C170.331 58.9595 170.378 58.8579 170.409 58.7816L170.414 58.7699L175.352 47.9761L179.469 65.7224H176.458L174.654 57.663Z" fill="white"/>
<path fill-rule="evenodd" clip-rule="evenodd" d="M83.7722 31.661C83.3535 31.3039 82.9207 30.9905 82.4751 30.721C82.0304 30.4521 81.5745 30.2282 81.1087 30.0496C80.6386 29.8701 80.1604 29.7361 79.6746 29.6478C79.1886 29.5594 78.6857 29.5152 78.1663 29.5152C77.1739 29.5152 76.2769 29.673 75.4756 29.989C74.6791 30.3031 73.9734 30.7747 73.3584 31.4043C72.7419 32.0355 72.2794 32.7589 71.9714 33.575C71.6617 34.3957 71.5068 35.3151 71.5068 36.334C71.5068 37.3167 71.6573 38.2102 71.9583 39.0135C72.2576 39.8126 72.7077 40.5284 73.3081 41.1603C73.9064 41.79 74.582 42.2614 75.3342 42.5749C76.089 42.8895 76.9255 43.0466 77.8431 43.0466C78.3875 43.0466 78.9143 42.999 79.4243 42.904C79.9346 42.8089 80.4344 42.6655 80.9244 42.4737C81.4139 42.2814 81.8921 42.0419 82.3587 41.7546C82.829 41.4649 83.2909 41.125 83.7442 40.734L84.3274 40.231V44.6675L84.1799 44.774C83.7481 45.0856 83.2979 45.3575 82.8295 45.5887C82.3596 45.8205 81.8716 46.0123 81.3658 46.1633L81.3655 46.1624C80.8568 46.3165 80.3302 46.4312 79.7861 46.5069C79.2372 46.5832 78.672 46.6212 78.091 46.6212C77.3463 46.6212 76.6286 46.5597 75.9382 46.4375C75.2484 46.3153 74.5826 46.1304 73.9414 45.8837H73.94C73.2998 45.6358 72.6992 45.3304 72.1376 44.9668C71.5766 44.6037 71.0545 44.1828 70.5706 43.7036C70.0901 43.2322 69.666 42.7186 69.2975 42.1635C68.9286 41.6079 68.6154 41.0117 68.3568 40.3755V40.3741C68.1005 39.7377 67.9081 39.0796 67.7799 38.4009C67.6512 37.7201 67.5869 37.0218 67.5869 36.3075C67.5869 34.8678 67.8436 33.5176 68.3568 32.2527C68.6152 31.6193 68.9311 31.0237 69.3055 30.465C69.6788 29.9079 70.1091 29.3903 70.5972 28.9113C71.0875 28.4258 71.6119 28 72.1702 27.6347C72.7291 27.269 73.3246 26.9617 73.9563 26.7136L73.9566 26.7143C74.5856 26.4652 75.2407 26.2787 75.9211 26.1545C76.6063 26.0294 77.3121 25.9672 78.0378 25.9672C78.6125 25.9672 79.1747 26.0095 79.7238 26.0936C80.2705 26.1773 80.8069 26.3037 81.3328 26.4721C81.8556 26.641 82.3703 26.8527 82.8777 27.1076C83.3846 27.3622 83.8815 27.6582 84.3692 27.9962L84.5314 28.1087L84.3141 32.1232L83.7722 31.661ZM87.9602 45.7636V26.4188H91.7473V42.6482H98.6535V46.1165H87.9602V45.7636ZM101.973 45.7636V26.4188H105.76V46.1165H101.973V45.7636ZM126.415 36.4698C126.394 36.3823 126.368 36.228 126.337 36.0087C126.32 35.8831 126.301 35.7361 126.281 35.5683C126.242 35.6707 126.202 35.7742 126.159 35.879C126.067 36.1024 125.965 36.331 125.852 36.5654C124.065 40.1395 122.326 43.7498 120.565 47.3382L115.284 36.3573C115.171 36.1273 115.072 35.9149 114.987 35.7223C114.946 35.6293 114.906 35.5361 114.867 35.4425C114.85 35.5542 114.83 35.6666 114.809 35.7798C114.765 36.0206 114.716 36.2568 114.662 36.4882L112.565 46.1165H108.998L113.811 24.8965L119.851 37.8099L119.853 37.814C119.896 37.9091 119.952 38.0386 120.02 38.2005C120.079 38.343 120.157 38.5338 120.253 38.7707C120.351 39.0161 120.453 39.2742 120.562 39.5519L120.594 39.4738C120.743 39.1164 120.914 38.73 121.107 38.3145L121.168 38.1803C121.238 38.0268 121.293 37.9046 121.33 37.8131L121.337 37.7993L127.243 24.8896L132.168 46.1165H128.574L126.415 36.4698ZM140.829 38.4643H145.033L143.309 34.6324L143.304 34.6186C143.244 34.4706 143.185 34.318 143.128 34.1646C143.075 34.0215 143.015 33.8506 142.947 33.6462L142.927 33.5844L142.92 33.6034C142.857 33.8023 142.799 33.9749 142.746 34.1226C142.693 34.2714 142.63 34.4375 142.558 34.6173L142.553 34.6324L140.829 38.4643ZM148.496 45.9056L146.438 41.6055H139.369L137.164 46.1165H133.143L142.891 25.1922L152.631 46.1165H148.589L148.496 45.9056ZM160.369 29.7542V46.1165H156.582V29.7542H151.535V26.4188H165.389V29.7542H160.369ZM167.526 45.7636V26.4188H178.83L178.83 29.7542H171.313V33.803H178.83V37.2182H171.313V42.6482H178.83V46.1165H167.526V45.7636Z" fill="white"/>
<path fill-rule="evenodd" clip-rule="evenodd" d="M40.8447 3.65936C45.7702 3.65936 50.3517 5.1252 54.1764 7.64124L50.9379 10.9235C47.9852 9.16656 44.5334 8.15649 40.8447 8.15649C29.9518 8.15649 21.1215 16.9575 21.1215 27.8142C21.1215 28.8972 21.2093 29.9597 21.3783 30.995C21.3783 30.995 16.9852 32.0523 16.9919 32.0892C16.739 30.6991 16.6077 29.2701 16.6094 27.8142C16.6243 14.6428 27.4599 3.65936 40.8447 3.65936Z" fill="white"/>
<path fill-rule="evenodd" clip-rule="evenodd" d="M5.42773 37.2832V46.5281C5.42773 46.5281 16.0639 37.5012 31.1919 38.2482C46.3198 38.9952 50.2955 40.9074 64.0936 47.3685C77.8917 53.8295 105.797 68.6638 119.594 71.5078C134.476 75.2328 167.183 79.2663 193.663 62.3329V60.2474C193.663 60.2474 176.689 72.4183 144.659 70.4573C112.629 68.4962 92.4273 54.8001 73.2528 45.3996C54.8876 35.8746 32.2267 21.1515 5.42773 37.2832Z" fill="#E6E8EC"/>
<path fill-rule="evenodd" clip-rule="evenodd" d="M24.3253 38.5598C27.8137 44.0985 33.7995 47.4741 40.845 47.4741C48.9201 47.474 55.862 42.6372 58.9129 35.7119C58.9174 35.7017 58.9219 35.6914 58.9264 35.6812L63.7619 35.6784C63.7619 35.6784 63.7619 35.6858 63.7558 35.7126C60.4732 45.1753 51.4554 51.9712 40.845 51.9712C31.694 51.9712 23.7618 46.9782 19.6377 39.517C21.4575 39.0369 22.3887 38.8572 24.3253 38.5598Z" fill="#E21E24"/>
<path fill-rule="evenodd" clip-rule="evenodd" d="M45.3889 23.9165L42.6104 23.5196L57.2091 9.06201L71.839 23.6919C66.5084 25.7982 64.4981 30.3793 63.7561 35.7126L58.9136 35.7111V21.8243H51.8867V35.138L45.3928 32.9439L45.3889 23.9165Z" fill="white"/>
<path d="M75.4208 51.9649V65.7224H72.2482V51.9649L40.1436 51.9615V49.2635H79.613V51.9649H75.4208ZM85.1914 56.0287H85.3611C86.0265 56.0287 86.5768 55.9905 87.0119 55.9141C87.4211 55.8423 87.7188 55.7403 87.9049 55.608C88.0814 55.4825 88.2151 55.3066 88.3053 55.08C88.4024 54.8361 88.4513 54.5302 88.4513 54.1621C88.4513 53.7627 88.3982 53.4274 88.2921 53.156C88.193 52.9023 88.0458 52.7029 87.851 52.5575C87.6471 52.4054 87.3443 52.2893 86.9435 52.2089C86.5179 52.1237 85.9902 52.0812 85.3611 52.0812H85.1914V56.0287ZM85.0361 58.841V65.7224H82.0188V49.2635H85.9119C86.444 49.2635 86.9183 49.2814 87.3353 49.3165C87.7601 49.3523 88.1264 49.4066 88.4345 49.4788C88.742 49.5512 89.0298 49.6485 89.2975 49.7709C89.5667 49.8938 89.8126 50.0415 90.0354 50.214L90.0366 50.2151C90.3034 50.4238 90.5386 50.6618 90.7429 50.9289C90.946 51.1945 91.1195 51.4899 91.2642 51.8149L91.2653 51.8173C91.4063 52.1386 91.5125 52.4759 91.5835 52.83C91.6548 53.1852 91.6904 53.5513 91.6904 53.9293C91.6904 55.2692 91.3593 56.3281 90.6972 57.1058V57.107C90.362 57.4987 89.9491 57.8118 89.4584 58.0454C89.1091 58.2118 88.7204 58.3379 88.2924 58.4237L93.8114 65.7224H90.1542L85.0361 58.841ZM101.607 59.4076H105.102L103.666 55.6973L103.661 55.6855C103.611 55.5618 103.562 55.4344 103.514 55.3063C103.47 55.1873 103.42 55.0443 103.363 54.8732L103.351 54.8362L103.351 54.8375C103.297 55.004 103.249 55.1482 103.205 55.2713C103.161 55.3952 103.108 55.5339 103.048 55.6844L103.043 55.6973L101.607 59.4076ZM107.997 65.5432L106.28 62.1587H100.383L98.5422 65.7224H95.1728L103.321 48.2324L111.462 65.7224H108.076L107.997 65.5432ZM116.386 62.7938H118.256C118.843 62.7938 119.355 62.7748 119.793 62.7363C120.224 62.6984 120.579 62.6423 120.859 62.5678H120.86C121.137 62.4944 121.394 62.3957 121.633 62.2726C121.873 62.1488 122.095 61.9997 122.299 61.8264C122.579 61.5865 122.824 61.3177 123.035 61.0195C123.246 60.7202 123.422 60.3909 123.563 60.031C123.706 59.6682 123.813 59.2752 123.885 58.8526C123.957 58.4284 123.993 57.9713 123.993 57.4819C123.993 56.99 123.957 56.5321 123.885 56.1078C123.813 55.6864 123.706 55.295 123.563 54.9328C123.422 54.5728 123.246 54.2436 123.035 53.9443C122.825 53.6464 122.58 53.378 122.301 53.1383C122.095 52.9667 121.867 52.8181 121.618 52.694C121.37 52.5703 121.101 52.471 120.811 52.3972C120.514 52.3218 120.13 52.2653 119.658 52.2275C119.178 52.189 118.609 52.17 117.949 52.17H116.386V62.7938ZM113.213 65.4226V49.2635H116.984C118.116 49.2635 119.084 49.2925 119.89 49.3498C120.703 49.4077 121.35 49.4956 121.831 49.613H121.832C122.312 49.7325 122.762 49.8917 123.183 50.0903C123.606 50.2898 123.999 50.5291 124.363 50.808C124.842 51.1748 125.264 51.5934 125.627 52.064C125.991 52.5349 126.296 53.0555 126.542 53.6262C126.787 54.1939 126.971 54.8028 127.093 55.4527C127.215 56.0999 127.277 56.7838 127.277 57.504C127.277 58.2245 127.215 58.9064 127.093 59.5503C126.971 60.1956 126.787 60.8003 126.541 61.3646C126.295 61.9307 125.99 62.4481 125.627 62.9168C125.264 63.3862 124.843 63.8062 124.365 64.1767L124.363 64.1779C124 64.4562 123.612 64.695 123.199 64.8943C122.788 65.0928 122.351 65.2521 121.887 65.3718L121.886 65.373C121.428 65.4899 120.844 65.5778 120.136 65.6361C119.438 65.6934 118.619 65.7224 117.679 65.7224H113.213V65.4226ZM129.772 65.4226V49.2635H139.222V52.059H132.944V55.4298H139.222V58.2918H132.944V62.816H139.222V65.7224H129.772V65.4226Z" fill="#E21E24"/>
<path fill-rule="evenodd" clip-rule="evenodd" d="M61.2461 8.763H68.3898V16.3737L61.2461 8.763Z" fill="#E21E24"/>
</svg>
