<svg xmlns="http://www.w3.org/2000/svg" xmlns:xlink="http://www.w3.org/1999/xlink" width="80" height="80" viewBox="0 0 80 80"><defs><style>.a{fill:#cecece;}.b{clip-path:url(#a);}.c{fill:#e3e9f6;}.d{fill:#d6ddec;}.e{fill:#2a7bbc;}.f{fill:#f95858;}.g{fill:#f44336;}.h{fill:#fff;}.i{fill:#6f7386;}.j{fill:#5c5f70;}</style><clipPath id="a"><circle class="a" cx="40" cy="40" r="40"/></clipPath></defs><g class="b"><g transform="translate(0 -1.793)"><path class="c" d="M33.512,22.739h54.9a2.748,2.748,0,0,1,2.743,2.743v74.1a2.748,2.748,0,0,1-2.743,2.743h-54.9a2.748,2.748,0,0,1-2.743-2.743v-74.1A2.748,2.748,0,0,1,33.512,22.739Z" transform="translate(-30.769 -22.739)"/><path class="d" d="M65.076,91.353A24.685,24.685,0,0,1,40.389,66.666V22.739H33.512a2.748,2.748,0,0,0-2.743,2.743v74.1a2.748,2.748,0,0,0,2.743,2.743h54.9a2.748,2.748,0,0,0,2.743-2.743V91.353Z" transform="translate(-30.769 -22.739)"/><g transform="translate(8.189 7.553)"><path class="e" d="M74.657,43.331H47.227a1.391,1.391,0,0,1,0-2.783h27.43a1.383,1.383,0,0,1,1.391,1.391A1.409,1.409,0,0,1,74.657,43.331Z" transform="translate(-38.958 -30.292)"/><path class="e" d="M79.9,34.744H43.252a2.066,2.066,0,0,1-1.829-2.226,2.066,2.066,0,0,1,1.829-2.226H79.9a2.066,2.066,0,0,1,1.829,2.226A2.039,2.039,0,0,1,79.9,34.744Z" transform="translate(-38.958 -30.292)"/><path class="e" d="M82.886,52.912H52.713a1.391,1.391,0,1,1,0-2.783H82.886a1.391,1.391,0,0,1,0,2.783Z" transform="translate(-38.958 -30.292)"/><path class="e" d="M67.819,61.141H40.389A1.383,1.383,0,0,1,39,59.749a1.359,1.359,0,0,1,1.391-1.391h27.43a1.391,1.391,0,0,1,0,2.783Z" transform="translate(-38.958 -30.292)"/><path class="e" d="M82.886,61.141h-9.62a1.383,1.383,0,0,1-1.391-1.391,1.359,1.359,0,0,1,1.391-1.391h9.62a1.391,1.391,0,0,1,0,2.783Z" transform="translate(-38.958 -30.292)"/><path class="e" d="M54.065,68.018H40.35a1.391,1.391,0,1,1,0-2.783H54.065a1.383,1.383,0,0,1,1.391,1.391A1.409,1.409,0,0,1,54.065,68.018Z" transform="translate(-38.958 -30.292)"/><path class="e" d="M69.171,68.018h-9.62a1.391,1.391,0,1,1,0-2.783h9.62a1.383,1.383,0,0,1,1.391,1.391A1.409,1.409,0,0,1,69.171,68.018Z" transform="translate(-38.958 -30.292)"/></g><path class="f" d="M56.808,86.543a10.276,10.276,0,1,1-10.256-10.3A10.3,10.3,0,0,1,56.808,86.543Z" transform="translate(-30.769 -22.739)"/><path class="g" d="M46.551,96.839a10.287,10.287,0,0,0,9.779-7.116A24.6,24.6,0,0,1,42.7,77a10.3,10.3,0,0,0,3.856,19.837Z" transform="translate(-30.769 -22.739)"/><path class="e" d="M63.685,92.7a.856.856,0,0,1-.437-.079,1.352,1.352,0,0,1-.875-1.709l3.379-10.137a2.759,2.759,0,0,1,5.367.636L71.6,86.9l.477-.835a2.807,2.807,0,0,1,2.584-1.391,2.692,2.692,0,0,1,2.306,1.709l.875,2.186,3.975-5.088a1.43,1.43,0,0,1,.914-.517,1.461,1.461,0,0,1,.994.278,1.38,1.38,0,0,1,.239,1.908L79.944,90.24a2.717,2.717,0,0,1-2.544.994,2.789,2.789,0,0,1-2.147-1.709l-.835-2.147-.517.835a2.751,2.751,0,0,1-2.942,1.312,2.7,2.7,0,0,1-2.147-2.345l-.477-5.565-3.3,10.058A1.322,1.322,0,0,1,63.685,92.7Z" transform="translate(-30.769 -22.739)"/><path class="h" d="M46.193,90.439a2.769,2.769,0,0,1-1.948-.8l-2.9-2.9a1.262,1.262,0,0,1-.4-.994,1.569,1.569,0,0,1,.4-.994,1.417,1.417,0,0,1,1.948,0l2.9,2.9,4.85-4.85a1.382,1.382,0,0,1,1.948,1.948l-4.85,4.85A2.648,2.648,0,0,1,46.193,90.439Z" transform="translate(-30.769 -22.739)"/><path class="i" d="M98.549,49.374l7.116,4.134L93.3,74.9l-7.116-4.134Z" transform="translate(-30.769 -22.739)"/><path class="j" d="M92.625,59.63l-6.44,11.131L93.3,74.9l2.067-3.618A39.5,39.5,0,0,1,92.625,59.63Z" transform="translate(-30.769 -22.739)"/><path class="g" d="M93.341,74.9l-7.156-4.134-2.942,7.792L87.974,81.3Z" transform="translate(-30.769 -22.739)"/><path class="j" d="M83.482,78.831l4.77,2.743-1.391,2.385a2.769,2.769,0,0,1-4.81-2.743Z" transform="translate(-30.769 -22.739)"/><path class="i" d="M102.643,42.258l7.116,4.134-4.134,7.116-7.116-4.134Z" transform="translate(-30.769 -22.739)"/><path class="f" d="M108.964,39.555a2.729,2.729,0,0,1,.994,3.737l-1.391,2.385-4.77-2.743,1.391-2.385A2.822,2.822,0,0,1,108.964,39.555Z" transform="translate(-30.769 -22.739)"/><path class="j" d="M96.68,52.633l1.391-2.385,7.116,4.134L103.8,56.768Z" transform="translate(-30.769 -22.739)"/><path class="e" d="M103.558,69.489a1.307,1.307,0,0,1-.676-.159,1.339,1.339,0,0,1-.477-1.868l5.486-9.5a1.186,1.186,0,0,0,.119-1.034,1.337,1.337,0,0,0-.636-.835L95.488,49.215a1.4,1.4,0,0,1-.517-1.868,1.337,1.337,0,0,1,.835-.636,1.539,1.539,0,0,1,1.034.119l11.886,6.877a4.044,4.044,0,0,1,1.908,2.5,4.307,4.307,0,0,1-.4,3.141l-5.486,9.5A1.4,1.4,0,0,1,103.558,69.489Z" transform="translate(-30.769 -22.739)"/><path class="g" d="M107.573,40.548a5.6,5.6,0,0,1,.2-1.391,2.813,2.813,0,0,0-2.584,1.391L103.8,42.934l4.731,2.743.676-1.193A5.628,5.628,0,0,1,107.573,40.548Z" transform="translate(-30.769 -22.739)"/></g></g></svg>