<svg xmlns="http://www.w3.org/2000/svg" xmlns:xlink="http://www.w3.org/1999/xlink" width="80" height="80" viewBox="0 0 80 80"><defs><style>.a{fill:#cecece;}.b{clip-path:url(#a);}.c{fill:#515262;}.d{fill:#f44336;}.e{fill:#6f7386;}.f{fill:#5c5f70;}.g{fill:#464654;}.h{fill:#d6ddec;}.i{fill:#e3e9f6;}.j{fill:#aeb8d1;}.k{fill:#ccd3e1;}.l{fill:#6a6e80;}.m{fill:#2a7bbc;}</style><clipPath id="a"><circle class="a" cx="40" cy="40" r="40"/></clipPath></defs><g class="b"><g transform="translate(0 9.548)"><path class="c" d="M85.123,75.369c.427.755.131,1.544.2,2.332H17.241a11.982,11.982,0,0,0-.033-1.544c-.066-.624.23-.788.821-.788,2.66,0,5.287,0,7.947-.033H82.365C83.218,75.337,84.171,75.337,85.123,75.369Z" transform="translate(-11.199 -20.781)"/><path class="d" d="M33.5,53.629V45.977a.149.149,0,0,0,0-.164c.033-.033.033-.1.066-.131,1.051,0,2.069-.033,3.12-.033,1.018,0,2.069.033,3.087.033,0,.394.033.821.033,1.215v2.989c-.033,1.346-.033,2.693-.066,4.039-1.346,0-2.66.033-4.007.033-.722,0-1.445-.033-2.167-.033C33.53,53.826,33.53,53.727,33.5,53.629Z" transform="translate(-11.199 -20.781)"/><path class="e" d="M17.176,81.576a38.135,38.135,0,0,1-.033-3.875h5.911c0,.328-.263.493-.46.69-.788.821-1.609,1.609-2.4,2.4-.2.2-.46.361-.427.69" transform="translate(-11.199 -20.781)"/><path class="f" d="M39.77,45.681c-1.018,0-2.069-.033-3.087-.033V25.517c-.263-.821-.131-1.741-.624-2.5.033-.493-.3-.788-.591-1.149-.23-.263-.69-.263-.821-.657a16.528,16.528,0,0,1,3.12.1,6.5,6.5,0,0,1,1.741,1.248,3.8,3.8,0,0,0,1.281,1.117,2.04,2.04,0,0,0,2.5-.657c.23-.3.493-.591.722-.887.3.164.2.46.2.69v8.21c0,.23.066.493-.164.657-1.9-1.379-3.218-.92-3.941,1.346a8.552,8.552,0,0,0-.23,2.89c0,2.923-.033,5.846-.033,8.768A4.5,4.5,0,0,0,39.77,45.681Z" transform="translate(-11.199 -20.781)"/><path class="g" d="M44.007,31.593c.23-.164.164-.427.164-.657v-8.21c0-.263.1-.525-.2-.69a1.927,1.927,0,0,1,2.1-1.248c.722.033,1.445,0,2.167,0,1.314,0,1.675.3,2.036,1.576v2.989c0,1.806-.033,3.645-.033,5.452,0,1.97-.394,2.365-2.4,2.365-.657,0-1.314-.033-1.938,0a1.7,1.7,0,0,1-1.839-1.117A2.218,2.218,0,0,1,44.007,31.593Z" transform="translate(-11.199 -20.781)"/><path class="h" d="M55.435,34.417a11.2,11.2,0,0,1-.624-2.036v-.46c.328,0,.493-.263.69-.46l1.675-1.576a2.382,2.382,0,0,1,.755.952c.328.525.624.591,1.084.131a9.575,9.575,0,0,1,1.445-1.379,5.722,5.722,0,0,0,3.12,2.824c0,.23-.164.263-.361.328a5.083,5.083,0,0,1-4.171-.887.618.618,0,0,0-.985.066C57.176,32.742,56.289,33.563,55.435,34.417Z" transform="translate(-11.199 -20.781)"/><path class="i" d="M57.143,29.885l-1.675,1.576c-.2.2-.361.46-.69.46a7.073,7.073,0,0,1-.131-2.989,9.3,9.3,0,0,1,1.839-4.828,5,5,0,0,1,.131,2.2,6.846,6.846,0,0,0,.493,3.251A1.117,1.117,0,0,1,57.143,29.885Z" transform="translate(-11.199 -20.781)"/><path class="f" d="M20.591,30.181c.525,0,.887-.394,1.314-.624a10.253,10.253,0,0,1,4.368-1.544,16.054,16.054,0,0,1,1.9.066c-.952.493-2.594,1.149-3.547,1.675a16.152,16.152,0,0,0-3.415,2.529c-.263.23-.525.558-.952.328-.394-.23-.3-.591-.164-.952A6.017,6.017,0,0,1,20.591,30.181Z" transform="translate(-11.199 -20.781)"/><path class="j" d="M66.929,47.291a5.579,5.579,0,0,0-5.419-4.3c0-.1-.033-.2-.033-.3v-2.2c.591.066,1.117.46,1.708.46a5.425,5.425,0,0,0,1.248.164,7.075,7.075,0,0,0,1.675.1c1.149-.1,2.2-.493,3.317-.69,0,1.609.033,3.218.033,4.828v2.989c0,1.872-.033,3.744-.033,5.616H66.962V51.79C66.962,51.527,67.061,48.21,66.929,47.291Z" transform="translate(-11.199 -20.781)"/><path class="e" d="M81.97,70.969a1.138,1.138,0,0,1-1.182,1.182,1.2,1.2,0,0,1,.033-2.4A1.158,1.158,0,0,1,81.97,70.969Z" transform="translate(-11.199 -20.781)"/><path class="i" d="M55.435,34.417c.887-.854,1.773-1.675,2.594-2.562.361-.361.591-.328.985-.066a4.858,4.858,0,0,0,4.171.887c.2-.033.361-.1.361-.328a5.293,5.293,0,0,0,6.568-2.167,5.228,5.228,0,0,0,.821-2.956c-.033-1.051,0-2.135,0-3.186.23,0,.3.2.394.328a10.2,10.2,0,0,1,1.314,3.744v.3l-.591.493L61.412,39.54c-.2.2-.328.394-.493.591h-.164a13,13,0,0,1-4.105-3.58,12.935,12.935,0,0,1-1.182-2.069C55.435,34.516,55.435,34.45,55.435,34.417Z" transform="translate(-11.199 -20.781)"/><path class="h" d="M75.271,25.484a3.052,3.052,0,0,1,.164.328c-.46.033-.624.427-.92.69-.657.525-1.084,1.314-1.9,1.675A10.2,10.2,0,0,0,71.3,24.433c-.1-.164-.164-.328-.394-.328V21.544c0-.2-.1-.46.1-.591.263-.131.427.131.591.263A8.819,8.819,0,0,1,75.271,25.484Z" transform="translate(-11.199 -20.781)"/><path class="k" d="M59.967,25.78V21.346c0-.361-.066-.591-.46-.328a8.868,8.868,0,0,0-2.989,3.054,5,5,0,0,1,.131,2.2,6.846,6.846,0,0,0,.493,3.251h0v.3a2.382,2.382,0,0,1,.755.952c.328.525.624.591,1.084.131a9.575,9.575,0,0,1,1.445-1.379A9.983,9.983,0,0,1,59.967,25.78Z" transform="translate(-11.199 -20.781)"/><path class="h" d="M75.895,27.849h.164c.066,1.051.2,2.1.164,3.186a10.523,10.523,0,0,1-2.627,6.4,14.314,14.314,0,0,1-4.138,3.12c-1.117.2-2.167.591-3.317.69a5.688,5.688,0,0,1-1.675-.1c.033-.23.2-.263.361-.328a10.888,10.888,0,0,0,7.816-8.571c.066-.263.23-.558-.033-.69-.23-.131-.394.2-.525.361-2.824,2.824-5.649,5.616-8.44,8.44-.164.164-.427.328-.394.624a10.076,10.076,0,0,1-1.708-.46,5.707,5.707,0,0,1-.624-.328l.493-.591,10.64-10.64c.2-.2.394-.328.591-.493.3.328.1.755.164,1.117.066.394,0,.952.328,1.117.3.131.525-.394.788-.624a8.2,8.2,0,0,0,.755-.755C75.074,28.8,75.7,28.506,75.895,27.849Z" transform="translate(-11.199 -20.781)"/><path class="l" d="M85.222,81.576c.131-1.281.033-2.594.066-3.875H82.3a.4.4,0,0,1-.1.3.53.53,0,0,0,.1-.3H79.343v.131a1.093,1.093,0,0,1-.1.2l.1-.2V77.7H26.076a.487.487,0,0,1-.033.23.487.487,0,0,0,.033-.23H23.12c0,.328-.263.493-.46.69-.788.821-1.609,1.609-2.4,2.4-.2.2-.46.361-.427.69" transform="translate(-11.199 -20.781)"/><path class="h" d="M87.882,53.924H77.931a129.969,129.969,0,0,1-9,13.76,44.931,44.931,0,0,1-7.258,7.094,1.074,1.074,0,0,0-.361.493H82.266c.952,0,1.872.033,2.824.033.427.755.131,1.544.2,2.332-.033,1.281.066,2.594-.066,3.875a20.742,20.742,0,0,0,2.857-.033c1.412-.164,3.12-.854,3.12-2.43V56.388C91.2,54.45,89.721,53.924,87.882,53.924ZM80.788,72.184a1.2,1.2,0,0,1,.033-2.4A1.2,1.2,0,0,1,81.97,71,1.177,1.177,0,0,1,80.788,72.184Z" transform="translate(-11.199 -20.781)"/><path class="i" d="M76.059,56.125a2.738,2.738,0,0,1-.328,1.117,53.517,53.517,0,0,1-6.8,10.476,44.932,44.932,0,0,1-7.258,7.094,1.074,1.074,0,0,0-.361.493h-4.2a.894.894,0,0,1,.3-.69c6.141-6.141,12.282-12.25,18.391-18.391A2.261,2.261,0,0,0,76.059,56.125Z" transform="translate(-11.199 -20.781)"/><path class="e" d="M36.683,39.409V25.517c-.263-.821-.131-1.741-.624-2.5.033-.493-.3-.788-.591-1.149-.23-.263-.69-.263-.821-.657H32.479a12.019,12.019,0,0,0-8.637,3.35,10.482,10.482,0,0,0-3.251,5.649c.525,0,.887-.394,1.314-.624a11.421,11.421,0,0,1,4.565-1.412,14.275,14.275,0,0,1,3.81.2,7.767,7.767,0,0,1,2.036,1.215,4.29,4.29,0,0,1,1.248,3.087c0,2.135.033,4.3.033,6.437-.033.164-.033.3-.066.46.033.821.033,1.675.066,2.5-.033.164-.033.328-.066.46.033,1.051.033,2.1.066,3.153,1.051,0,2.069-.033,3.12-.033C36.683,43.547,36.683,41.478,36.683,39.409ZM32.447,26.338Z" transform="translate(-11.199 -20.781)"/><path class="m" d="M50.411,67.521a5.067,5.067,0,0,1-1.675-1.084c-1.051-1.97-.722-3.744.952-4.631a3.241,3.241,0,0,1,3.35.164,4.588,4.588,0,0,1,1.248,1.9A3.193,3.193,0,0,1,50.411,67.521Z" transform="translate(-11.199 -20.781)"/><path class="i" d="M69.458,53.924H64.3c-.164,0-2,.033-2.791.033H47.291a2.168,2.168,0,0,0-.46.033c-2.365,0-4.729-.033-7.094-.033-1.346,0-2.66.033-4.007.033,0,.066-1.445-.033-2.167-.033h-.328a2.168,2.168,0,0,0-.46.033h-13.6a2.168,2.168,0,0,0-.46.033H14.351a3.128,3.128,0,0,0-2.036.821A9.91,9.91,0,0,0,11.2,56.519v22.5a1.865,1.865,0,0,0,1.314,2.069,8.427,8.427,0,0,0,2.759.558,9.593,9.593,0,0,0,1.938-.033,38.135,38.135,0,0,1-.033-3.875,11.981,11.981,0,0,0-.033-1.544c-.066-.624.23-.788.821-.788,2.66,0,5.287,0,7.947-.033H43.087v0H57.143s5.287-.624,5.55-.657C77.537,71.856,77.931,54.319,77.931,53.99,77.077,53.924,71.3,53.924,69.458,53.924Zm-19.048,13.6a5.067,5.067,0,0,1-1.675-1.084h0c-1.051-1.938-.722-3.744.952-4.631a3.241,3.241,0,0,1,3.35.164,5.572,5.572,0,0,1,1.248,1.9A3.193,3.193,0,0,1,50.411,67.521Z" transform="translate(-11.199 -20.781)"/><path class="i" d="M63.251,40.952c0-.3.23-.46.394-.624,2.824-2.824,5.616-5.649,8.44-8.44.164-.164.3-.493.525-.361.263.131.1.46.033.69a10.985,10.985,0,0,1-7.816,8.571c-.2.066-.361.1-.361.328A4.93,4.93,0,0,1,63.251,40.952Z" transform="translate(-11.199 -20.781)"/><path class="k" d="M75.895,27.849c-.2.69-.821.952-1.248,1.445a8.2,8.2,0,0,1-.755.755c-.263.23-.525.755-.788.624-.328-.164-.263-.722-.328-1.117-.066-.361.131-.788-.164-1.117v-.3c.821-.328,1.248-1.149,1.9-1.675.3-.23.46-.657.92-.69A7.544,7.544,0,0,1,75.895,27.849Z" transform="translate(-11.199 -20.781)"/><circle class="j" cx="1.215" cy="1.215" r="1.215" transform="translate(4.663 48.94)"/><circle class="d" cx="1.215" cy="1.215" r="1.215" transform="translate(63.974 48.973)"/><path class="k" d="M67,53.924c0-.722.066-6.043-.066-6.634a5.579,5.579,0,0,0-5.419-4.3v5.287h0v5.616H64.3C65.222,53.924,66.108,53.924,67,53.924Z" transform="translate(-11.199 -20.781)"/></g></g></svg>