<svg xmlns="http://www.w3.org/2000/svg" xmlns:xlink="http://www.w3.org/1999/xlink" width="80" height="80" viewBox="0 0 80 80"><defs><style>.a{fill:#cecece;}.b{clip-path:url(#a);}.c{fill:#f44336;}.d{fill:#f95858;}.e{fill:#419ad6;}.f{fill:#2a7bbc;}.g{fill:#b4e6ff;}.h{fill:#9bd6ff;}.i{fill:#f1f4fb;}.j{fill:#ff8c66;}.k{fill:#fff;}.l{fill:#5b5d6e;}.m{fill:#c7cfe2;}.n{fill:#7f8499;}</style><clipPath id="a"><circle class="a" cx="40" cy="40" r="40"/></clipPath></defs><g class="b"><g transform="translate(0 15.57)"><path class="c" d="M83.037,46.528H66.755V65.5H87.108a1.336,1.336,0,0,0,1.346-1.346V51.945A5.419,5.419,0,0,0,83.037,46.528Z" transform="translate(-8.454 -24.815)"/><path class="d" d="M77.62,30.247H66.787v5.448H81.033a.7.7,0,0,0,.689-.689v-.689A4.13,4.13,0,0,0,77.62,30.247Z" transform="translate(-8.454 -24.815)"/><path class="e" d="M65.409,24.83H16.595a1.336,1.336,0,0,0-1.346,1.346V53.292H12.524a1.346,1.346,0,0,0,0,2.693h8.141a1.346,1.346,0,0,1,0,2.693H15.249v5.417a1.336,1.336,0,0,0,1.346,1.346h50.16V26.207A1.363,1.363,0,0,0,65.409,24.83Z" transform="translate(-8.454 -24.815)"/><path class="f" d="M36.352,58.74a9.42,9.42,0,0,0-9.706,0H9.8a1.346,1.346,0,0,0,0,2.693h5.417v2.724A1.336,1.336,0,0,0,16.564,65.5h50.16V58.708l-30.372.031Z" transform="translate(-8.454 -24.815)"/><path class="g" d="M83.037,46.528,80.313,35.695H66.755V46.528Z" transform="translate(-8.454 -24.815)"/><path class="h" d="M72.2,38.387H81l-.689-2.724H66.755V46.5h4.07V39.765A1.39,1.39,0,0,1,72.2,38.387Z" transform="translate(-8.454 -24.815)"/><rect class="i" width="4.07" height="5.417" transform="translate(75.93 27.131)"/><path class="j" d="M81.691,51.945v2.724a2.726,2.726,0,0,0,2.724,2.724h1.346V51.977l-4.07-.031Z" transform="translate(-8.454 -24.815)"/><path class="k" d="M39.64,50.943a1.586,1.586,0,0,1-1.19-.5L30.309,42.3A1.7,1.7,0,0,1,32.72,39.89l6.951,6.951L52.039,34.474a1.7,1.7,0,1,1,2.411,2.411L40.892,50.442A1.83,1.83,0,0,1,39.64,50.943Z" transform="translate(-8.454 -24.815)"/><path class="f" d="M64.063,24.83S66.6,60.618,21.448,60.618c-4.133,0,45.307,4.916,45.307,4.916V27.022s.157-1.409-.532-1.847A4.232,4.232,0,0,0,64.063,24.83Z" transform="translate(-8.454 -24.815)"/><g transform="translate(16.25 35.272)"><circle class="l" cx="6.795" cy="6.795" r="6.795" transform="translate(44.744)"/><circle class="l" cx="6.795" cy="6.795" r="6.795"/></g><circle class="m" cx="4.07" cy="4.07" r="4.07" transform="translate(63.718 37.996)"/><circle class="n" cx="1.346" cy="1.346" r="1.346" transform="translate(66.442 40.72)"/><circle class="m" cx="4.07" cy="4.07" r="4.07" transform="translate(18.975 37.996)"/><circle class="n" cx="1.346" cy="1.346" r="1.346" transform="translate(21.699 40.72)"/></g></g></svg>